<svg data-v-fde0c5aa="" xmlns="http://www.w3.org/2000/svg" viewBox="0 0 300 300" class="Logo__Desktop"><!----><defs data-v-fde0c5aa=""><!----></defs><rect data-v-fde0c5aa="" fill="transparent" x="0" y="0" width="300px" height="300px" class="logo-background-square"></rect><defs data-v-fde0c5aa=""><!----></defs><g data-v-fde0c5aa="" id="0d11afa0-70b4-450b-86fe-36cc7d8067ec" fill="#000000" transform="matrix(3.265669460936488,0,0,3.265669460936488,128.0016473418119,113.25416692806706)"><path d="M5.93 12.01L6.13 12.22L6.13 12.22Q6.05 12.40 5.92 12.56L5.92 12.56L5.92 12.56Q5.79 12.71 5.63 12.84L5.63 12.84L5.63 12.84Q5.48 12.96 5.29 13.03L5.29 13.03L5.29 13.03Q5.10 13.10 4.90 13.10L4.90 13.10L4.90 13.10Q4.36 13.10 4.12 12.81L4.12 12.81L4.12 12.81Q3.88 12.51 3.88 12.00L3.88 12.00L3.88 11.87L3.88 11.87Q3.76 12.11 3.61 12.34L3.61 12.34L3.61 12.34Q3.46 12.57 3.26 12.76L3.26 12.76L3.26 12.76Q3.07 12.94 2.83 13.06L2.83 13.06L2.83 13.06Q2.58 13.17 2.28 13.17L2.28 13.17L2.28 13.17Q1.83 13.17 1.48 12.99L1.48 12.99L1.48 12.99Q1.13 12.81 0.90 12.51L0.90 12.51L0.90 12.51Q0.67 12.20 0.55 11.80L0.55 11.80L0.55 11.80Q0.43 11.40 0.43 10.95L0.43 10.95L0.43 10.95Q0.43 10.38 0.61 9.80L0.61 9.80L0.61 9.80Q0.79 9.21 1.13 8.74L1.13 8.74L1.13 8.74Q1.47 8.27 1.97 7.97L1.97 7.97L1.97 7.97Q2.47 7.68 3.11 7.68L3.11 7.68L3.11 7.68Q3.51 7.68 3.88 7.87L3.88 7.87L3.88 3.67L5.14 3.23L5.14 12.03L5.14 12.03Q5.14 12.17 5.21 12.28L5.21 12.28L5.21 12.28Q5.27 12.39 5.42 12.39L5.42 12.39L5.42 12.39Q5.58 12.39 5.71 12.27L5.71 12.27L5.71 12.27Q5.85 12.14 5.93 12.01L5.93 12.01ZM3.88 10.17L3.88 10.17L3.88 8.71L3.88 8.71Q3.72 8.55 3.52 8.45L3.52 8.45L3.52 8.45Q3.33 8.35 3.10 8.35L3.10 8.35L3.10 8.35Q2.69 8.35 2.41 8.57L2.41 8.57L2.41 8.57Q2.13 8.78 1.96 9.11L1.96 9.11L1.96 9.11Q1.78 9.44 1.70 9.82L1.70 9.82L1.70 9.82Q1.61 10.20 1.61 10.53L1.61 10.53L1.61 10.53Q1.61 10.79 1.66 11.11L1.66 11.11L1.66 11.11Q1.72 11.44 1.84 11.72L1.84 11.72L1.84 11.72Q1.97 12.00 2.18 12.20L2.18 12.20L2.18 12.20Q2.39 12.39 2.70 12.39L2.70 12.39L2.70 12.39Q2.95 12.39 3.14 12.28L3.14 12.28L3.14 12.28Q3.33 12.17 3.46 11.99L3.46 11.99L3.46 11.99Q3.59 11.81 3.67 11.57L3.67 11.57L3.67 11.57Q3.75 11.33 3.80 11.09L3.80 11.09L3.80 11.09Q3.84 10.84 3.86 10.60L3.86 10.60L3.86 10.60Q3.88 10.36 3.88 10.17ZM9.04 13.19L9.04 13.19L9.04 13.19Q8.54 13.19 8.10 13.01L8.10 13.01L8.10 13.01Q7.66 12.83 7.33 12.51L7.33 12.51L7.33 12.51Q7.01 12.19 6.82 11.75L6.82 11.75L6.82 11.75Q6.63 11.32 6.63 10.81L6.63 10.81L6.63 10.81Q6.63 10.23 6.82 9.72L6.82 9.72L6.82 9.72Q7.01 9.21 7.35 8.80L7.35 8.80L7.35 8.80Q7.69 8.39 8.15 8.09L8.15 8.09L8.15 8.09Q8.61 7.79 9.15 7.62L9.15 7.62L9.35 7.85L9.35 7.85Q9.04 8.08 8.78 8.37L8.78 8.37L8.78 8.37Q8.51 8.66 8.31 9.00L8.31 9.00L8.31 9.00Q8.11 9.34 8.00 9.71L8.00 9.71L8.00 9.71Q7.88 10.08 7.88 10.47L7.88 10.47L7.88 10.47Q7.88 10.80 7.98 11.16L7.98 11.16L7.98 11.16Q8.07 11.53 8.26 11.83L8.26 11.83L8.26 11.83Q8.46 12.13 8.75 12.32L8.75 12.32L8.75 12.32Q9.04 12.52 9.42 12.52L9.42 12.52L9.42 12.52Q9.76 12.52 10.01 12.39L10.01 12.39L10.01 12.39Q10.26 12.27 10.42 12.06L10.42 12.06L10.42 12.06Q10.59 11.85 10.67 11.56L10.67 11.56L10.67 11.56Q10.75 11.28 10.75 10.96L10.75 10.96L10.75 10.96Q10.75 10.60 10.61 10.21L10.61 10.21L10.61 10.21Q10.47 9.82 10.22 9.50L10.22 9.50L10.22 9.50Q9.97 9.17 9.63 8.95L9.63 8.95L9.63 8.95Q9.30 8.73 8.91 8.70L8.91 8.70L8.91 8.70Q9.15 8.42 9.44 8.19L9.44 8.19L9.44 8.19Q9.73 7.96 10.02 7.75L10.02 7.75L10.02 7.75Q10.42 7.88 10.72 8.13L10.72 8.13L10.72 8.13Q11.03 8.38 11.23 8.71L11.23 8.71L11.23 8.71Q11.44 9.04 11.55 9.42L11.55 9.42L11.55 9.42Q11.66 9.81 11.66 10.21L11.66 10.21L11.66 10.21Q11.66 10.75 11.47 11.28L11.47 11.28L11.47 11.28Q11.29 11.81 10.94 12.24L10.94 12.24L10.94 12.24Q10.60 12.67 10.11 12.93L10.11 12.93L10.11 12.93Q9.63 13.19 9.04 13.19ZM18.27 12.03L18.46 12.24L18.46 12.24Q18.38 12.41 18.25 12.57L18.25 12.57L18.25 12.57Q18.12 12.73 17.96 12.85L17.96 12.85L17.96 12.85Q17.80 12.97 17.62 13.05L17.62 13.05L17.62 13.05Q17.43 13.12 17.23 13.12L17.23 13.12L17.23 13.12Q16.69 13.12 16.45 12.82L16.45 12.82L16.45 12.82Q16.21 12.52 16.21 12.01L16.21 12.01L16.21 9.23L16.21 9.23Q16.21 9.18 16.20 9.12L16.20 9.12L16.20 9.12Q16.20 9.05 16.18 8.99L16.18 8.99L16.18 8.99Q16.16 8.93 16.13 8.89L16.13 8.89L16.13 8.89Q16.09 8.85 16.03 8.85L16.03 8.85L16.03 8.85Q15.84 8.85 15.64 9.08L15.64 9.08L15.64 9.08Q15.45 9.32 15.27 9.69L15.27 9.69L15.27 9.69Q15.09 10.06 14.93 10.51L14.93 10.51L14.93 10.51Q14.78 10.97 14.66 11.42L14.66 11.42L14.66 11.42Q14.55 11.87 14.48 12.26L14.48 12.26L14.48 12.26Q14.42 12.65 14.42 12.88L14.42 12.88L13.17 13.32L13.17 8.72L13.17 8.72Q13.17 8.59 13.10 8.47L13.10 8.47L13.10 8.47Q13.04 8.36 12.89 8.36L12.89 8.36L12.89 8.36Q12.72 8.36 12.58 8.49L12.58 8.49L12.58 8.49Q12.44 8.61 12.36 8.74L12.36 8.74L12.17 8.53L12.17 8.53Q12.26 8.36 12.38 8.20L12.38 8.20L12.38 8.20Q12.51 8.04 12.67 7.92L12.67 7.92L12.67 7.92Q12.83 7.79 13.02 7.72L13.02 7.72L13.02 7.72Q13.21 7.65 13.41 7.65L13.41 7.65L13.41 7.65Q13.95 7.65 14.18 7.95L14.18 7.95L14.18 7.95Q14.42 8.24 14.42 8.75L14.42 8.75L14.42 10.98L14.42 10.98Q14.48 10.70 14.58 10.34L14.58 10.34L14.58 10.34Q14.69 9.98 14.84 9.61L14.84 9.61L14.84 9.61Q14.99 9.24 15.18 8.89L15.18 8.89L15.18 8.89Q15.37 8.54 15.59 8.26L15.59 8.26L15.59 8.26Q15.82 7.98 16.08 7.82L16.08 7.82L16.08 7.82Q16.35 7.65 16.66 7.65L16.66 7.65L16.66 7.65Q16.98 7.65 17.14 7.79L17.14 7.79L17.14 7.79Q17.31 7.93 17.38 8.15L17.38 8.15L17.38 8.15Q17.45 8.36 17.46 8.62L17.46 8.62L17.46 8.62Q17.47 8.88 17.47 9.12L17.47 9.12L17.47 12.04L17.47 12.04Q17.47 12.18 17.53 12.29L17.53 12.29L17.53 12.29Q17.60 12.41 17.75 12.41L17.75 12.41L17.75 12.41Q17.90 12.41 18.04 12.28L18.04 12.28L18.04 12.28Q18.18 12.15 18.27 12.03L18.27 12.03ZM24.48 12.01L24.68 12.22L24.68 12.22Q24.60 12.40 24.47 12.56L24.47 12.56L24.47 12.56Q24.34 12.71 24.18 12.84L24.18 12.84L24.18 12.84Q24.02 12.96 23.83 13.03L23.83 13.03L23.83 13.03Q23.65 13.10 23.45 13.10L23.45 13.10L23.45 13.10Q22.91 13.10 22.66 12.81L22.66 12.81L22.66 12.81Q22.42 12.51 22.42 12.00L22.42 12.00L22.42 11.87L22.42 11.87Q22.31 12.11 22.16 12.34L22.16 12.34L22.16 12.34Q22.00 12.57 21.81 12.76L21.81 12.76L21.81 12.76Q21.62 12.94 21.37 13.06L21.37 13.06L21.37 13.06Q21.13 13.17 20.83 13.17L20.83 13.17L20.83 13.17Q20.37 13.17 20.03 12.99L20.03 12.99L20.03 12.99Q19.68 12.81 19.45 12.51L19.45 12.51L19.45 12.51Q19.22 12.20 19.10 11.80L19.10 11.80L19.10 11.80Q18.98 11.40 18.98 10.95L18.98 10.95L18.98 10.95Q18.98 10.38 19.15 9.80L19.15 9.80L19.15 9.80Q19.33 9.21 19.67 8.74L19.67 8.74L19.67 8.74Q20.02 8.27 20.51 7.97L20.51 7.97L20.51 7.97Q21.01 7.68 21.66 7.68L21.66 7.68L21.66 7.68Q22.05 7.68 22.42 7.87L22.42 7.87L22.42 3.67L23.69 3.23L23.69 12.03L23.69 12.03Q23.69 12.17 23.75 12.28L23.75 12.28L23.75 12.28Q23.82 12.39 23.97 12.39L23.97 12.39L23.97 12.39Q24.12 12.39 24.26 12.27L24.26 12.27L24.26 12.27Q24.40 12.14 24.48 12.01L24.48 12.01ZM22.42 10.17L22.42 10.17L22.42 8.71L22.42 8.71Q22.26 8.55 22.07 8.45L22.07 8.45L22.07 8.45Q21.88 8.35 21.64 8.35L21.64 8.35L21.64 8.35Q21.24 8.35 20.96 8.57L20.96 8.57L20.96 8.57Q20.68 8.78 20.50 9.11L20.50 9.11L20.50 9.11Q20.32 9.44 20.24 9.82L20.24 9.82L20.24 9.82Q20.16 10.20 20.16 10.53L20.16 10.53L20.16 10.53Q20.16 10.79 20.21 11.11L20.21 11.11L20.21 11.11Q20.26 11.44 20.39 11.72L20.39 11.72L20.39 11.72Q20.51 12.00 20.72 12.20L20.72 12.20L20.72 12.20Q20.93 12.39 21.25 12.39L21.25 12.39L21.25 12.39Q21.50 12.39 21.69 12.28L21.69 12.28L21.69 12.28Q21.88 12.17 22.00 11.99L22.00 11.99L22.00 11.99Q22.13 11.81 22.22 11.57L22.22 11.57L22.22 11.57Q22.30 11.33 22.34 11.09L22.34 11.09L22.34 11.09Q22.39 10.84 22.40 10.60L22.40 10.60L22.40 10.60Q22.42 10.36 22.42 10.17ZM33.93 8.15L33.93 8.15L33.93 8.15Q33.93 8.78 33.79 9.40L33.79 9.40L33.79 9.40Q33.65 10.03 33.39 10.59L33.39 10.59L33.39 10.59Q33.13 11.16 32.75 11.64L32.75 11.64L32.75 11.64Q32.37 12.13 31.88 12.49L31.88 12.49L31.88 12.49Q31.38 12.84 30.79 13.05L30.79 13.05L30.79 13.05Q30.20 13.25 29.52 13.25L29.52 13.25L29.52 13.25Q28.83 13.25 28.24 13.05L28.24 13.05L28.24 13.05Q27.65 12.84 27.16 12.49L27.16 12.49L27.16 12.49Q26.67 12.13 26.28 11.64L26.28 11.64L26.28 11.64Q25.90 11.16 25.63 10.59L25.63 10.59L25.63 10.59Q25.37 10.03 25.23 9.40L25.23 9.40L25.23 9.40Q25.09 8.78 25.09 8.15L25.09 8.15L25.09 8.15Q25.09 7.52 25.23 6.90L25.23 6.90L25.23 6.90Q25.37 6.28 25.63 5.71L25.63 5.71L25.63 5.71Q25.90 5.15 26.28 4.66L26.28 4.66L26.28 4.66Q26.67 4.17 27.16 3.81L27.16 3.81L27.16 3.81Q27.65 3.46 28.24 3.26L28.24 3.26L28.24 3.26Q28.83 3.06 29.52 3.06L29.52 3.06L29.52 3.06Q30.20 3.06 30.79 3.26L30.79 3.26L30.79 3.26Q31.38 3.46 31.88 3.81L31.88 3.81L31.88 3.81Q32.37 4.17 32.75 4.66L32.75 4.66L32.75 4.66Q33.13 5.15 33.39 5.71L33.39 5.71L33.39 5.71Q33.65 6.28 33.79 6.90L33.79 6.90L33.79 6.90Q33.93 7.52 33.93 8.15ZM28.90 3.75L28.90 3.75L28.90 3.75Q28.46 3.75 28.11 3.91L28.11 3.91L28.11 3.91Q27.77 4.06 27.50 4.32L27.50 4.32L27.50 4.32Q27.23 4.59 27.05 4.93L27.05 4.93L27.05 4.93Q26.87 5.28 26.75 5.66L26.75 5.66L26.75 5.66Q26.63 6.04 26.58 6.44L26.58 6.44L26.58 6.44Q26.52 6.84 26.52 7.20L26.52 7.20L26.52 7.20Q26.52 7.74 26.61 8.34L26.61 8.34L26.61 8.34Q26.69 8.95 26.87 9.54L26.87 9.54L26.87 9.54Q27.05 10.12 27.33 10.66L27.33 10.66L27.33 10.66Q27.62 11.20 28.02 11.61L28.02 11.61L28.02 11.61Q28.42 12.02 28.95 12.26L28.95 12.26L28.95 12.26Q29.47 12.50 30.13 12.50L30.13 12.50L30.13 12.50Q30.57 12.50 30.92 12.35L30.92 12.35L30.92 12.35Q31.26 12.20 31.53 11.93L31.53 11.93L31.53 11.93Q31.79 11.67 31.98 11.32L31.98 11.32L31.98 11.32Q32.16 10.97 32.28 10.59L32.28 10.59L32.28 10.59Q32.40 10.21 32.46 9.81L32.46 9.81L32.46 9.81Q32.51 9.41 32.51 9.04L32.51 9.04L32.51 9.04Q32.51 8.50 32.43 7.90L32.43 7.90L32.43 7.90Q32.35 7.30 32.17 6.71L32.17 6.71L32.17 6.71Q31.99 6.13 31.70 5.59L31.70 5.59L31.70 5.59Q31.42 5.05 31.01 4.65L31.01 4.65L31.01 4.65Q30.61 4.24 30.09 4.00L30.09 4.00L30.09 4.00Q29.57 3.75 28.90 3.75ZM35.76 7.32L40.42 7.32L40.00 8.43L35.33 8.43L35.76 7.32Z"></path></g><defs data-v-fde0c5aa=""><linearGradient data-v-fde0c5aa="" gradientTransform="rotate(25)" id="cddab4d8-f30a-4c04-980c-da63054048dd" x1="0%" y1="0%" x2="100%" y2="0%"><stop data-v-fde0c5aa="" offset="0%" stop-color="#E90DDA" stop-opacity="1"></stop><stop data-v-fde0c5aa="" offset="100%" stop-color="#15CFF1" stop-opacity="1"></stop></linearGradient></defs><g data-v-fde0c5aa="" id="e966ef2e-f555-4aea-a029-cb3c5cd4c991" stroke="none" fill="url(#cddab4d8-f30a-4c04-980c-da63054048dd)" transform="matrix(2.3876839135428893,0,0,2.3876839135428893,40,111.79705766794787)"><path d="M17.572 23.933l4.106 7.095L32 13.189h-8.981V7.582L11.51.972 0 7.582v13.222l11.51 6.611 6.062-3.482zm10.96-8.744l-6.855 11.846-6.855-11.846h13.71z"></path></g><defs data-v-fde0c5aa=""><!----></defs><g data-v-fde0c5aa="" id="80acc063-5048-49c5-a1b8-3ec5e53e72e2" fill="#000000" transform="matrix(0.4804256577869555,0,0,0.4804256577869555,127.95499975601925,164.4804713378347)"><path d="M4.19 6.69L4.19 6.69L4.19 6.69Q3.63 6.69 3.33 6.38L3.33 6.38L3.33 6.38Q3.02 6.06 3.02 5.61L3.02 5.61L3.02 5.61Q3.02 5.50 3.06 5.35L3.06 5.35L3.06 5.35Q3.09 5.19 3.15 5.08L3.15 5.08L3.15 5.08Q3.33 5.17 3.69 5.20L3.69 5.20L3.69 5.20Q4.05 5.24 4.52 5.24L4.52 5.24L4.52 5.24Q5.24 5.24 6.14 5.17L6.14 5.17L6.14 5.17Q7.04 5.11 7.87 5.04L7.87 5.04L7.87 5.04Q8.69 4.97 9.32 4.91L9.32 4.91L9.32 4.91Q9.95 4.84 10.14 4.84L10.14 4.84L10.14 4.84Q10.65 4.84 10.88 5.23L10.88 5.23L10.88 5.23Q11.12 5.61 11.23 6.26L11.23 6.26L11.23 6.26Q10.86 6.23 10.51 6.21L10.51 6.21L10.51 6.21Q10.15 6.19 9.90 6.19L9.90 6.19L9.90 6.19Q9.45 6.19 9.00 6.22L9.00 6.22L9.00 6.22Q8.54 6.24 8.08 6.30L8.08 6.30L8.08 6.30Q7.88 6.71 7.64 7.26L7.64 7.26L7.64 7.26Q7.41 7.81 7.17 8.41L7.17 8.41L7.17 8.41Q6.94 9.02 6.73 9.61L6.73 9.61L6.73 9.61Q6.52 10.21 6.37 10.68L6.37 10.68L6.37 10.68Q6.06 11.61 5.83 12.39L5.83 12.39L5.83 12.39Q5.60 13.17 5.42 13.85L5.42 13.85L5.42 13.85Q5.25 14.53 5.12 15.15L5.12 15.15L5.12 15.15Q5.00 15.76 4.90 16.35L4.90 16.35L4.90 16.35Q3.96 16.21 3.33 15.18L3.33 15.18L3.33 15.18Q3.44 14.74 3.60 14.23L3.60 14.23L3.60 14.23Q3.77 13.72 3.98 13.07L3.98 13.07L3.98 13.07Q4.20 12.42 4.49 11.59L4.49 11.59L4.49 11.59Q4.79 10.77 5.17 9.72L5.17 9.72L5.17 9.72Q5.31 9.32 5.46 8.90L5.46 8.90L5.46 8.90Q5.61 8.47 5.76 8.05L5.76 8.05L5.76 8.05Q5.91 7.63 6.03 7.24L6.03 7.24L6.03 7.24Q6.15 6.85 6.23 6.52L6.23 6.52L6.23 6.52Q5.64 6.59 5.12 6.64L5.12 6.64L5.12 6.64Q4.59 6.69 4.19 6.69ZM26.17 7.46L26.17 7.46L26.17 7.46Q26.17 8.13 25.87 8.73L25.87 8.73L25.87 8.73Q25.56 9.32 25.03 9.79L25.03 9.79L25.03 9.79Q24.50 10.26 23.79 10.58L23.79 10.58L23.79 10.58Q23.07 10.91 22.23 11.02L22.23 11.02L22.23 11.02Q22.44 11.65 22.74 12.31L22.74 12.31L22.74 12.31Q23.04 12.98 23.39 13.59L23.39 13.59L23.39 13.59Q23.74 14.21 24.12 14.73L24.12 14.73L24.12 14.73Q24.50 15.25 24.86 15.58L24.86 15.58L24.86 15.58Q24.79 15.72 24.66 15.86L24.66 15.86L24.66 15.86Q24.53 16.00 24.35 16.12L24.35 16.12L24.35 16.12Q24.18 16.24 23.99 16.32L23.99 16.32L23.99 16.32Q23.80 16.39 23.63 16.39L23.63 16.39L23.63 16.39Q23.32 16.39 23.04 16.10L23.04 16.10L23.04 16.10Q22.76 15.81 22.48 15.17L22.48 15.17L22.48 15.17Q22.19 14.53 21.88 13.52L21.88 13.52L21.88 13.52Q21.56 12.50 21.18 11.07L21.18 11.07L21.18 11.07Q21.03 11.07 20.87 11.07L20.87 11.07L20.87 11.07Q20.72 11.07 20.64 11.05L20.64 11.05L20.64 11.05Q20.54 10.99 20.43 10.85L20.43 10.85L20.43 10.85Q20.05 11.66 19.75 12.38L19.75 12.38L19.75 12.38Q19.46 13.09 19.23 13.76L19.23 13.76L19.23 13.76Q19.00 14.42 18.82 15.04L18.82 15.04L18.82 15.04Q18.65 15.67 18.52 16.31L18.52 16.31L18.52 16.31Q18.05 16.20 17.70 15.90L17.70 15.90L17.70 15.90Q17.35 15.61 17.04 15.08L17.04 15.08L17.04 15.08Q17.09 14.95 17.16 14.83L17.16 14.83L17.16 14.83Q17.22 14.71 17.32 14.50L17.32 14.50L17.32 14.50Q17.42 14.28 17.56 13.94L17.56 13.94L17.56 13.94Q17.71 13.61 17.95 13.05L17.95 13.05L17.95 13.05Q18.20 12.49 18.54 11.68L18.54 11.68L18.54 11.68Q18.89 10.86 19.38 9.70L19.38 9.70L19.38 9.70Q19.60 9.18 19.76 8.79L19.76 8.79L19.76 8.79Q19.92 8.40 20.05 8.04L20.05 8.04L20.05 8.04Q20.17 7.69 20.28 7.33L20.28 7.33L20.28 7.33Q20.38 6.97 20.50 6.51L20.50 6.51L20.50 6.51Q19.85 6.73 19.30 7.01L19.30 7.01L19.30 7.01Q18.75 7.28 18.38 7.59L18.38 7.59L18.38 7.59Q18.26 7.50 18.12 7.34L18.12 7.34L18.12 7.34Q17.99 7.17 17.88 6.96L17.88 6.96L17.88 6.96Q17.77 6.76 17.68 6.55L17.68 6.55L17.68 6.55Q17.60 6.34 17.58 6.17L17.58 6.17L17.58 6.17Q18.00 5.89 18.61 5.66L18.61 5.66L18.61 5.66Q19.22 5.42 19.91 5.24L19.91 5.24L19.91 5.24Q20.59 5.07 21.31 4.97L21.31 4.97L21.31 4.97Q22.02 4.87 22.64 4.87L22.64 4.87L22.64 4.87Q24.32 4.87 25.24 5.56L25.24 5.56L25.24 5.56Q26.17 6.26 26.17 7.46ZM22.58 6.02L22.75 6.29L22.75 6.29Q22.65 6.41 22.44 6.79L22.44 6.79L22.44 6.79Q22.23 7.17 21.96 7.69L21.96 7.69L21.96 7.69Q21.69 8.22 21.38 8.83L21.38 8.83L21.38 8.83Q21.08 9.45 20.80 10.05L20.80 10.05L20.80 10.05Q21.85 10.05 22.74 9.86L22.74 9.86L22.74 9.86Q23.62 9.66 24.26 9.30L24.26 9.30L24.26 9.30Q24.91 8.95 25.26 8.46L25.26 8.46L25.26 8.46Q25.62 7.98 25.62 7.39L25.62 7.39L25.62 7.39Q25.62 6.69 25.12 6.32L25.12 6.32L25.12 6.32Q24.61 5.95 23.56 5.95L23.56 5.95L23.56 5.95Q23.32 5.95 23.09 5.97L23.09 5.97L23.09 5.97Q22.85 5.99 22.58 6.02L22.58 6.02ZM37.74 10.35L37.74 10.35L37.74 10.35Q38.79 9.20 39.63 7.91L39.63 7.91L39.63 7.91Q40.46 6.62 41.17 5.01L41.17 5.01L41.17 5.01Q41.54 5.05 41.87 5.21L41.87 5.21L41.87 5.21Q42.21 5.36 42.41 5.56L42.41 5.56L42.41 5.56Q41.64 6.48 41.01 7.24L41.01 7.24L41.01 7.24Q40.39 7.99 39.87 8.66L39.87 8.66L39.87 8.66Q39.35 9.32 38.91 9.93L38.91 9.93L38.91 9.93Q38.47 10.54 38.05 11.16L38.05 11.16L38.05 11.16Q37.84 11.87 37.66 12.60L37.66 12.60L37.66 12.60Q37.48 13.33 37.34 13.99L37.34 13.99L37.34 13.99Q37.20 14.66 37.12 15.22L37.12 15.22L37.12 15.22Q37.04 15.79 37.04 16.20L37.04 16.20L37.04 16.20Q36.89 16.20 36.55 16.14L36.55 16.14L36.55 16.14Q36.22 16.07 35.87 15.99L35.87 15.99L35.87 15.99Q35.52 15.90 35.23 15.82L35.23 15.82L35.23 15.82Q34.94 15.74 34.89 15.68L34.89 15.68L34.89 15.68Q35.11 15.30 35.33 14.75L35.33 14.75L35.33 14.75Q35.55 14.20 35.76 13.59L35.76 13.59L35.76 13.59Q35.97 12.98 36.16 12.36L36.16 12.36L36.16 12.36Q36.36 11.73 36.53 11.20L36.53 11.20L36.53 11.20Q36.18 10.11 35.85 9.15L35.85 9.15L35.85 9.15Q35.52 8.19 35.21 7.41L35.21 7.41L35.21 7.41Q34.90 6.64 34.62 6.08L34.62 6.08L34.62 6.08Q34.34 5.52 34.09 5.22L34.09 5.22L34.09 5.22Q34.23 5.17 34.52 5.11L34.52 5.11L34.52 5.11Q34.80 5.05 35.15 5.00L35.15 5.00L35.15 5.00Q35.49 4.94 35.85 4.91L35.85 4.91L35.85 4.91Q36.20 4.87 36.48 4.86L36.48 4.86L36.48 4.86Q36.48 5.21 36.55 5.71L36.55 5.71L36.55 5.71Q36.61 6.22 36.71 6.79L36.71 6.79L36.71 6.79Q36.82 7.36 36.96 7.95L36.96 7.95L36.96 7.95Q37.10 8.54 37.24 9.03L37.24 9.03L37.24 9.03Q37.38 9.52 37.51 9.88L37.51 9.88L37.51 9.88Q37.65 10.23 37.74 10.35ZM61.26 6.69L61.26 6.69L61.26 6.69Q60.70 6.69 60.40 6.38L60.40 6.38L60.40 6.38Q60.10 6.06 60.10 5.61L60.10 5.61L60.10 5.61Q60.10 5.50 60.14 5.35L60.14 5.35L60.14 5.35Q60.17 5.19 60.23 5.08L60.23 5.08L60.23 5.08Q60.41 5.17 60.77 5.20L60.77 5.20L60.77 5.20Q61.12 5.24 61.60 5.24L61.60 5.24L61.60 5.24Q62.31 5.24 63.22 5.17L63.22 5.17L63.22 5.17Q64.12 5.11 64.95 5.04L64.95 5.04L64.95 5.04Q65.77 4.97 66.40 4.91L66.40 4.91L66.40 4.91Q67.03 4.84 67.21 4.84L67.21 4.84L67.21 4.84Q67.73 4.84 67.96 5.23L67.96 5.23L67.96 5.23Q68.19 5.61 68.31 6.26L68.31 6.26L68.31 6.26Q67.94 6.23 67.58 6.21L67.58 6.21L67.58 6.21Q67.23 6.19 66.98 6.19L66.98 6.19L66.98 6.19Q66.53 6.19 66.07 6.22L66.07 6.22L66.07 6.22Q65.62 6.24 65.16 6.30L65.16 6.30L65.16 6.30Q64.96 6.71 64.72 7.26L64.72 7.26L64.72 7.26Q64.48 7.81 64.25 8.41L64.25 8.41L64.25 8.41Q64.02 9.02 63.81 9.61L63.81 9.61L63.81 9.61Q63.60 10.21 63.45 10.68L63.45 10.68L63.45 10.68Q63.14 11.61 62.91 12.39L62.91 12.39L62.91 12.39Q62.68 13.17 62.50 13.85L62.50 13.85L62.50 13.85Q62.33 14.53 62.20 15.15L62.20 15.15L62.20 15.15Q62.08 15.76 61.98 16.35L61.98 16.35L61.98 16.35Q61.04 16.21 60.41 15.18L60.41 15.18L60.41 15.18Q60.52 14.74 60.68 14.23L60.68 14.23L60.68 14.23Q60.84 13.72 61.06 13.07L61.06 13.07L61.06 13.07Q61.28 12.42 61.57 11.59L61.57 11.59L61.57 11.59Q61.87 10.77 62.24 9.72L62.24 9.72L62.24 9.72Q62.38 9.32 62.54 8.90L62.54 8.90L62.54 8.90Q62.69 8.47 62.84 8.05L62.84 8.05L62.84 8.05Q62.99 7.63 63.10 7.24L63.10 7.24L63.10 7.24Q63.22 6.85 63.31 6.52L63.31 6.52L63.31 6.52Q62.72 6.59 62.19 6.64L62.19 6.64L62.19 6.64Q61.67 6.69 61.26 6.69ZM80.18 4.98L80.18 4.98L80.18 4.98Q80.44 5.10 80.72 5.27L80.72 5.27L80.72 5.27Q81.00 5.45 81.24 5.63L81.24 5.63L81.24 5.63Q81.48 5.81 81.64 5.98L81.64 5.98L81.64 5.98Q81.80 6.16 81.82 6.27L81.82 6.27L81.82 6.27Q81.58 6.22 81.34 6.20L81.34 6.20L81.34 6.20Q81.10 6.17 80.91 6.17L80.91 6.17L80.91 6.17Q80.28 6.17 79.65 6.48L79.65 6.48L79.65 6.48Q79.03 6.79 78.47 7.32L78.47 7.32L78.47 7.32Q77.91 7.85 77.43 8.57L77.43 8.57L77.43 8.57Q76.96 9.28 76.62 10.09L76.62 10.09L76.62 10.09Q76.27 10.91 76.08 11.77L76.08 11.77L76.08 11.77Q75.88 12.64 75.88 13.48L75.88 13.48L75.88 13.48Q75.88 14.57 76.24 15.11L76.24 15.11L76.24 15.11Q76.61 15.64 77.31 15.64L77.31 15.64L77.31 15.64Q77.64 15.64 78.04 15.51L78.04 15.51L78.04 15.51Q78.43 15.37 78.83 15.13L78.83 15.13L78.83 15.13Q79.24 14.90 79.63 14.56L79.63 14.56L79.63 14.56Q80.02 14.22 80.36 13.82L80.36 13.82L80.36 13.82Q80.85 13.23 81.24 12.48L81.24 12.48L81.24 12.48Q81.63 11.73 81.91 10.89L81.91 10.89L81.91 10.89Q82.18 10.05 82.33 9.16L82.33 9.16L82.33 9.16Q82.47 8.27 82.47 7.42L82.47 7.42L82.47 7.42Q82.47 7.08 82.46 6.85L82.46 6.85L82.46 6.85Q82.45 6.62 82.42 6.46L82.42 6.46L82.42 6.46Q82.40 6.30 82.39 6.20L82.39 6.20L82.39 6.20Q82.38 6.10 82.36 6.03L82.36 6.03L82.36 6.03Q82.53 6.12 82.73 6.24L82.73 6.24L82.73 6.24Q82.94 6.36 83.11 6.59L83.11 6.59L83.11 6.59Q83.29 6.82 83.41 7.20L83.41 7.20L83.41 7.20Q83.52 7.57 83.52 8.18L83.52 8.18L83.52 8.18Q83.52 9.16 83.29 10.10L83.29 10.10L83.29 10.10Q83.06 11.05 82.65 11.90L82.65 11.90L82.65 11.90Q82.24 12.75 81.68 13.50L81.68 13.50L81.68 13.50Q81.12 14.24 80.47 14.80L80.47 14.80L80.47 14.80Q79.63 15.54 78.68 15.95L78.68 15.95L78.68 15.95Q77.73 16.35 76.85 16.35L76.85 16.35L76.85 16.35Q75.56 16.35 74.88 15.53L74.88 15.53L74.88 15.53Q74.20 14.71 74.20 13.12L74.20 13.12L74.20 13.12Q74.20 12.26 74.39 11.31L74.39 11.31L74.39 11.31Q74.58 10.36 74.92 9.44L74.92 9.44L74.92 9.44Q75.26 8.51 75.74 7.68L75.74 7.68L75.74 7.68Q76.22 6.85 76.78 6.21L76.78 6.21L76.78 6.21Q77.35 5.57 78.00 5.19L78.00 5.19L78.00 5.19Q78.65 4.82 79.34 4.82L79.34 4.82L79.34 4.82Q79.56 4.82 79.76 4.85L79.76 4.85L79.76 4.85Q79.95 4.89 80.18 4.98ZM103.95 6.69L103.95 6.69L103.95 6.69Q103.39 6.69 103.09 6.38L103.09 6.38L103.09 6.38Q102.79 6.06 102.79 5.61L102.79 5.61L102.79 5.61Q102.79 5.50 102.82 5.35L102.82 5.35L102.82 5.35Q102.86 5.19 102.91 5.08L102.91 5.08L102.91 5.08Q103.10 5.17 103.45 5.20L103.45 5.20L103.45 5.20Q103.81 5.24 104.29 5.24L104.29 5.24L104.29 5.24Q105 5.24 105.90 5.17L105.90 5.17L105.90 5.17Q106.81 5.11 107.63 5.04L107.63 5.04L107.63 5.04Q108.46 4.97 109.09 4.91L109.09 4.91L109.09 4.91Q109.72 4.84 109.90 4.84L109.90 4.84L109.90 4.84Q110.42 4.84 110.65 5.23L110.65 5.23L110.65 5.23Q110.88 5.61 110.99 6.26L110.99 6.26L110.99 6.26Q110.63 6.23 110.27 6.21L110.27 6.21L110.27 6.21Q109.91 6.19 109.66 6.19L109.66 6.19L109.66 6.19Q109.21 6.19 108.76 6.22L108.76 6.22L108.76 6.22Q108.30 6.24 107.84 6.30L107.84 6.30L107.84 6.30Q107.65 6.71 107.41 7.26L107.41 7.26L107.41 7.26Q107.17 7.81 106.94 8.41L106.94 8.41L106.94 8.41Q106.71 9.02 106.50 9.61L106.50 9.61L106.50 9.61Q106.29 10.21 106.13 10.68L106.13 10.68L106.13 10.68Q105.83 11.61 105.59 12.39L105.59 12.39L105.59 12.39Q105.36 13.17 105.19 13.85L105.19 13.85L105.19 13.85Q105.01 14.53 104.89 15.15L104.89 15.15L104.89 15.15Q104.76 15.76 104.66 16.35L104.66 16.35L104.66 16.35Q103.73 16.21 103.10 15.18L103.10 15.18L103.10 15.18Q103.21 14.74 103.37 14.23L103.37 14.23L103.37 14.23Q103.53 13.72 103.75 13.07L103.75 13.07L103.75 13.07Q103.96 12.42 104.26 11.59L104.26 11.59L104.26 11.59Q104.55 10.77 104.93 9.72L104.93 9.72L104.93 9.72Q105.07 9.32 105.22 8.90L105.22 8.90L105.22 8.90Q105.38 8.47 105.52 8.05L105.52 8.05L105.52 8.05Q105.67 7.63 105.79 7.24L105.79 7.24L105.79 7.24Q105.91 6.85 105.99 6.52L105.99 6.52L105.99 6.52Q105.41 6.59 104.88 6.64L104.88 6.64L104.88 6.64Q104.36 6.69 103.95 6.69ZM121.87 14.36L121.87 14.36L121.87 14.36Q121.87 13.78 122.07 12.85L122.07 12.85L122.07 12.85Q122.26 11.93 122.58 10.88L122.58 10.88L122.58 10.88Q121.66 10.95 120.73 11.06L120.73 11.06L120.73 11.06Q119.80 11.17 119.11 11.19L119.11 11.19L119.11 11.19Q118.48 12.66 118.11 13.89L118.11 13.89L118.11 13.89Q117.74 15.13 117.53 16.31L117.53 16.31L117.53 16.31Q117.00 16.18 116.65 15.87L116.65 15.87L116.65 15.87Q116.30 15.55 116.00 15.08L116.00 15.08L116.00 15.08Q116.12 14.85 116.26 14.50L116.26 14.50L116.26 14.50Q116.41 14.15 116.61 13.66L116.61 13.66L116.61 13.66Q116.82 13.16 117.07 12.50L117.07 12.50L117.07 12.50Q117.33 11.83 117.67 10.95L117.67 10.95L117.67 10.95Q117.21 10.75 117.05 10.40L117.05 10.40L117.05 10.40Q117.12 10.35 117.37 10.28L117.37 10.28L117.37 10.28Q117.61 10.22 117.98 10.15L117.98 10.15L118.16 9.70L118.16 9.70Q118.45 8.95 118.64 8.43L118.64 8.43L118.64 8.43Q118.83 7.91 118.96 7.41L118.96 7.41L118.96 7.41Q119.10 6.92 119.22 6.31L119.22 6.31L119.22 6.31Q119.34 5.71 119.50 4.79L119.50 4.79L119.50 4.79Q120.09 4.90 120.57 5.31L120.57 5.31L120.57 5.31Q121.06 5.71 121.41 6.29L121.41 6.29L121.41 6.29Q121.28 6.45 121.10 6.79L121.10 6.79L121.10 6.79Q120.92 7.13 120.70 7.59L120.70 7.59L120.70 7.59Q120.48 8.06 120.23 8.64L120.23 8.64L120.23 8.64Q119.98 9.23 119.69 9.87L119.69 9.87L119.69 9.87Q120.55 9.76 121.44 9.66L121.44 9.66L121.44 9.66Q122.33 9.56 123.02 9.52L123.02 9.52L123.02 9.52Q123.27 8.79 123.54 8.10L123.54 8.10L123.54 8.10Q123.82 7.41 124.08 6.83L124.08 6.83L124.08 6.83Q124.35 6.26 124.59 5.82L124.59 5.82L124.59 5.82Q124.84 5.39 125.03 5.18L125.03 5.18L125.03 5.18Q125.17 5.19 125.41 5.29L125.41 5.29L125.41 5.29Q125.64 5.38 125.87 5.50L125.87 5.50L125.87 5.50Q126.11 5.63 126.31 5.78L126.31 5.78L126.31 5.78Q126.50 5.92 126.57 6.05L126.57 6.05L126.57 6.05Q126.32 6.29 126.07 6.66L126.07 6.66L126.07 6.66Q125.82 7.04 125.57 7.53L125.57 7.53L125.57 7.53Q125.33 8.02 125.09 8.60L125.09 8.60L125.09 8.60Q124.85 9.17 124.64 9.79L124.64 9.79L124.64 9.79Q124.92 10.04 124.92 10.42L124.92 10.42L124.92 10.42Q124.92 10.68 124.81 10.91L124.81 10.91L124.81 10.91Q124.68 10.88 124.56 10.87L124.56 10.87L124.56 10.87Q124.43 10.86 124.29 10.85L124.29 10.85L124.29 10.85Q124.05 11.61 123.86 12.35L123.86 12.35L123.86 12.35Q123.66 13.09 123.53 13.76L123.53 13.76L123.53 13.76Q123.40 14.43 123.32 14.99L123.32 14.99L123.32 14.99Q123.24 15.55 123.24 15.93L123.24 15.93L123.24 15.93Q123.24 16.07 123.25 16.16L123.25 16.16L123.25 16.16Q123.26 16.24 123.27 16.30L123.27 16.30L123.27 16.30Q122.96 16.28 122.82 16.19L122.82 16.19L122.82 16.19Q122.68 16.10 122.61 16.00L122.61 16.00L122.61 16.00Q122.54 15.89 122.49 15.79L122.49 15.79L122.49 15.79Q122.43 15.68 122.30 15.62L122.30 15.62L122.30 15.62Q122.21 15.58 122.12 15.43L122.12 15.43L122.12 15.43Q122.04 15.27 121.98 15.08L121.98 15.08L121.98 15.08Q121.93 14.88 121.90 14.69L121.90 14.69L121.90 14.69Q121.87 14.49 121.87 14.36ZM133.28 14.38L133.28 14.38L133.28 14.38Q133.28 13.87 133.44 13.07L133.44 13.07L133.44 13.07Q133.60 12.26 133.86 11.33L133.86 11.33L133.86 11.33Q134.12 10.40 134.46 9.43L134.46 9.43L134.46 9.43Q134.79 8.46 135.14 7.60L135.14 7.60L135.14 7.60Q135.49 6.75 135.83 6.10L135.83 6.10L135.83 6.10Q136.16 5.46 136.43 5.18L136.43 5.18L136.43 5.18Q136.57 5.19 136.80 5.29L136.80 5.29L136.80 5.29Q137.03 5.38 137.27 5.50L137.27 5.50L137.27 5.50Q137.51 5.63 137.70 5.78L137.70 5.78L137.70 5.78Q137.90 5.92 137.96 6.05L137.96 6.05L137.96 6.05Q137.55 6.41 137.15 7.15L137.15 7.15L137.15 7.15Q136.75 7.88 136.38 8.82L136.38 8.82L136.38 8.82Q136.01 9.76 135.69 10.80L135.69 10.80L135.69 10.80Q135.37 11.84 135.13 12.82L135.13 12.82L135.13 12.82Q134.89 13.80 134.76 14.64L134.76 14.64L134.76 14.64Q134.62 15.48 134.62 16.00L134.62 16.00L134.62 16.00Q134.62 16.24 134.67 16.30L134.67 16.30L134.67 16.30Q134.36 16.28 134.22 16.19L134.22 16.19L134.22 16.19Q134.08 16.10 134.00 16.00L134.00 16.00L134.00 16.00Q133.92 15.89 133.86 15.79L133.86 15.79L133.86 15.79Q133.80 15.68 133.67 15.62L133.67 15.62L133.67 15.62Q133.57 15.58 133.50 15.43L133.50 15.43L133.50 15.43Q133.43 15.27 133.38 15.09L133.38 15.09L133.38 15.09Q133.34 14.90 133.31 14.70L133.31 14.70L133.31 14.70Q133.28 14.50 133.28 14.38ZM145.52 16.24L145.52 16.24L145.52 16.24Q144.72 16.00 144.44 15.79L144.44 15.79L144.44 15.79Q144.16 15.57 144.16 15.19L144.16 15.19L144.16 15.19Q144.16 14.77 144.35 14.01L144.35 14.01L144.35 14.01Q144.55 13.24 144.86 12.31L144.86 12.31L144.86 12.31Q145.18 11.37 145.59 10.35L145.59 10.35L145.59 10.35Q145.99 9.32 146.41 8.39L146.41 8.39L146.41 8.39Q146.83 7.45 147.23 6.67L147.23 6.67L147.23 6.67Q147.63 5.89 147.94 5.46L147.94 5.46L147.84 4.87L147.84 4.87Q148.04 4.87 148.39 4.97L148.39 4.97L148.39 4.97Q148.74 5.07 149.09 5.21L149.09 5.21L149.09 5.21Q149.45 5.35 149.72 5.49L149.72 5.49L149.72 5.49Q150.00 5.64 150.02 5.74L150.02 5.74L150.02 5.74Q149.95 6.08 149.91 6.76L149.91 6.76L149.91 6.76Q149.87 7.43 149.87 8.20L149.87 8.20L149.87 8.20Q149.87 9.73 149.99 11.19L149.99 11.19L149.99 11.19Q150.11 12.66 150.54 14.17L150.54 14.17L150.54 14.17Q150.77 13.05 151.03 11.94L151.03 11.94L151.03 11.94Q151.28 10.82 151.56 9.81L151.56 9.81L151.56 9.81Q151.84 8.79 152.12 7.92L152.12 7.92L152.12 7.92Q152.40 7.06 152.66 6.40L152.66 6.40L152.66 6.40Q152.92 5.75 153.15 5.38L153.15 5.38L153.15 5.38Q153.37 5.01 153.55 4.98L153.55 4.98L153.55 4.98Q153.71 5.01 153.89 5.10L153.89 5.10L153.89 5.10Q154.07 5.19 154.24 5.32L154.24 5.32L154.24 5.32Q154.41 5.45 154.55 5.60L154.55 5.60L154.55 5.60Q154.69 5.75 154.77 5.91L154.77 5.91L154.77 5.91Q154.32 6.09 153.88 6.76L153.88 6.76L153.88 6.76Q153.44 7.43 153.04 8.39L153.04 8.39L153.04 8.39Q152.64 9.35 152.30 10.47L152.30 10.47L152.30 10.47Q151.96 11.59 151.70 12.68L151.70 12.68L151.70 12.68Q151.44 13.76 151.29 14.69L151.29 14.69L151.29 14.69Q151.14 15.61 151.13 16.17L151.13 16.17L151.13 16.17Q151.13 16.20 151.14 16.21L151.14 16.21L151.14 16.21Q151.10 16.23 151.05 16.23L151.05 16.23L151.05 16.23Q151.00 16.23 150.96 16.23L150.96 16.23L150.96 16.23Q150.32 16.23 149.82 16.07L149.82 16.07L149.82 16.07Q149.32 15.90 149.17 15.61L149.17 15.61L149.17 15.61Q148.88 14.43 148.68 13.34L148.68 13.34L148.68 13.34Q148.48 12.25 148.35 11.16L148.35 11.16L148.35 11.16Q148.22 10.07 148.14 8.95L148.14 8.95L148.14 8.95Q148.06 7.84 148.02 6.62L148.02 6.62L148.02 6.62Q147.76 7.04 147.46 7.72L147.46 7.72L147.46 7.72Q147.17 8.40 146.89 9.21L146.89 9.21L146.89 9.21Q146.61 10.02 146.35 10.92L146.35 10.92L146.35 10.92Q146.09 11.82 145.89 12.67L145.89 12.67L145.89 12.67Q145.70 13.52 145.59 14.29L145.59 14.29L145.59 14.29Q145.47 15.05 145.47 15.61L145.47 15.61L145.47 15.61Q145.47 15.90 145.48 16.03L145.48 16.03L145.48 16.03Q145.49 16.16 145.52 16.24ZM164.09 10.74L164.09 10.74L164.09 10.74Q164.96 9.45 165.81 8.37L165.81 8.37L165.81 8.37Q166.66 7.28 167.43 6.50L167.43 6.50L167.43 6.50Q168.20 5.71 168.84 5.28L168.84 5.28L168.84 5.28Q169.48 4.84 169.96 4.84L169.96 4.84L169.96 4.84Q170.14 4.84 170.36 4.98L170.36 4.98L170.36 4.98Q170.58 5.12 170.77 5.35L170.77 5.35L170.77 5.35Q170.95 5.57 171.08 5.83L171.08 5.83L171.08 5.83Q171.21 6.09 171.21 6.33L171.21 6.33L171.21 6.33Q170.34 6.61 169.50 7.06L169.50 7.06L169.50 7.06Q168.67 7.52 167.91 8.11L167.91 8.11L167.91 8.11Q167.15 8.71 166.45 9.44L166.45 9.44L166.45 9.44Q165.76 10.16 165.20 10.99L165.20 10.99L165.20 10.99Q165.42 11.56 165.75 12.21L165.75 12.21L165.75 12.21Q166.08 12.87 166.47 13.47L166.47 13.47L166.47 13.47Q166.87 14.08 167.31 14.60L167.31 14.60L167.31 14.60Q167.76 15.12 168.22 15.43L168.22 15.43L168.22 15.43Q168.15 15.58 167.99 15.72L167.99 15.72L167.99 15.72Q167.82 15.86 167.62 15.98L167.62 15.98L167.62 15.98Q167.43 16.10 167.21 16.17L167.21 16.17L167.21 16.17Q166.99 16.24 166.81 16.24L166.81 16.24L166.81 16.24Q166.45 16.24 166.14 15.90L166.14 15.90L166.14 15.90Q165.83 15.55 165.52 14.86L165.52 14.86L165.52 14.86Q165.20 14.17 164.86 13.14L164.86 13.14L164.86 13.14Q164.51 12.11 164.09 10.74ZM161.98 16.31L161.98 16.31L161.98 16.31Q161.45 16.18 161.10 15.87L161.10 15.87L161.10 15.87Q160.75 15.55 160.45 15.08L160.45 15.08L160.45 15.08Q160.58 14.81 160.75 14.38L160.75 14.38L160.75 14.38Q160.93 13.94 161.18 13.31L161.18 13.31L161.18 13.31Q161.43 12.67 161.78 11.78L161.78 11.78L161.78 11.78Q162.13 10.89 162.60 9.70L162.60 9.70L162.60 9.70Q162.89 8.95 163.08 8.43L163.08 8.43L163.08 8.43Q163.27 7.91 163.40 7.41L163.40 7.41L163.40 7.41Q163.53 6.92 163.66 6.31L163.66 6.31L163.66 6.31Q163.79 5.71 163.95 4.79L163.95 4.79L163.95 4.79Q164.54 4.90 165.03 5.31L165.03 5.31L165.03 5.31Q165.51 5.71 165.86 6.29L165.86 6.29L165.86 6.29Q165.70 6.48 165.50 6.88L165.50 6.88L165.50 6.88Q165.30 7.28 165.05 7.84L165.05 7.84L165.05 7.84Q164.79 8.40 164.49 9.09L164.49 9.09L164.49 9.09Q164.18 9.77 163.84 10.54L163.84 10.54L163.84 10.54Q163.09 12.22 162.65 13.62L162.65 13.62L162.65 13.62Q162.22 15.01 161.98 16.31ZM196.43 5.74L196.43 5.74L196.43 5.74Q196.48 5.98 196.50 6.07L196.50 6.07L196.50 6.07Q196.52 6.16 196.52 6.31L196.52 6.31L196.52 6.31Q196.52 6.78 196.31 7.18L196.31 7.18L196.31 7.18Q196.11 7.57 195.76 7.74L195.76 7.74L195.76 7.74Q195.48 7.36 195.08 7.09L195.08 7.09L195.08 7.09Q194.67 6.82 194.19 6.64L194.19 6.64L194.19 6.64Q193.70 6.47 193.19 6.38L193.19 6.38L193.19 6.38Q192.67 6.30 192.18 6.30L192.18 6.30L192.18 6.30Q191.69 6.30 191.26 6.38L191.26 6.38L191.26 6.38Q190.83 6.45 190.50 6.59L190.50 6.59L190.50 6.59Q190.18 6.72 189.99 6.92L189.99 6.92L189.99 6.92Q189.80 7.11 189.80 7.36L189.80 7.36L189.80 7.36Q189.84 7.67 190.18 7.99L190.18 7.99L190.18 7.99Q190.51 8.30 191.00 8.60L191.00 8.60L191.00 8.60Q191.49 8.90 192.09 9.20L192.09 9.20L192.09 9.20Q192.68 9.49 193.26 9.76L193.26 9.76L193.26 9.76Q193.97 10.09 194.49 10.38L194.49 10.38L194.49 10.38Q195.01 10.67 195.34 11.01L195.34 11.01L195.34 11.01Q195.68 11.35 195.85 11.79L195.85 11.79L195.85 11.79Q196.01 12.22 196.01 12.84L196.01 12.84L196.01 12.84Q196.01 13.55 195.78 14.18L195.78 14.18L195.78 14.18Q195.54 14.80 195.08 15.26L195.08 15.26L195.08 15.26Q194.63 15.72 193.98 15.98L193.98 15.98L193.98 15.98Q193.34 16.24 192.54 16.24L192.54 16.24L192.54 16.24Q191.76 16.24 190.85 16.00L190.85 16.00L190.85 16.00Q189.94 15.76 189.15 15.35L189.15 15.35L189.15 15.35Q188.36 14.94 187.83 14.40L187.83 14.40L187.83 14.40Q187.31 13.86 187.31 13.26L187.31 13.26L187.31 13.26Q187.31 12.98 187.47 12.54L187.47 12.54L187.47 12.54Q187.63 12.11 188.05 11.63L188.05 11.63L188.05 11.63Q188.09 12.05 188.50 12.63L188.50 12.63L188.50 12.63Q188.92 13.20 189.74 13.69L189.74 13.69L189.74 13.69Q190.51 14.14 191.33 14.34L191.33 14.34L191.33 14.34Q192.15 14.55 192.86 14.55L192.86 14.55L192.86 14.55Q193.65 14.55 194.14 14.35L194.14 14.35L194.14 14.35Q194.63 14.15 194.91 13.88L194.91 13.88L194.91 13.88Q195.19 13.61 195.30 13.33L195.30 13.33L195.30 13.33Q195.41 13.05 195.43 12.88L195.43 12.88L195.43 12.88Q195.41 12.60 195.17 12.34L195.17 12.34L195.17 12.34Q194.92 12.08 194.51 11.84L194.51 11.84L194.51 11.84Q194.10 11.59 193.55 11.34L193.55 11.34L193.55 11.34Q193.00 11.09 192.42 10.84L192.42 10.84L192.42 10.84Q191.53 10.44 190.90 10.10L190.90 10.10L190.90 10.10Q190.26 9.76 189.85 9.40L189.85 9.40L189.85 9.40Q189.43 9.04 189.25 8.65L189.25 8.65L189.25 8.65Q189.06 8.26 189.06 7.76L189.06 7.76L189.06 7.76Q189.06 6.97 189.53 6.27L189.53 6.27L189.53 6.27Q190.01 5.57 190.90 5.21L190.90 5.21L190.90 5.21Q191.35 5.01 191.86 4.93L191.86 4.93L191.86 4.93Q192.37 4.84 192.86 4.84L192.86 4.84L192.86 4.84Q193.79 4.84 194.67 5.10L194.67 5.10L194.67 5.10Q195.55 5.35 196.43 5.74ZM204.55 14.38L204.55 14.38L204.55 14.38Q204.55 13.87 204.72 13.07L204.72 13.07L204.72 13.07Q204.88 12.26 205.13 11.33L205.13 11.33L205.13 11.33Q205.39 10.40 205.73 9.43L205.73 9.43L205.73 9.43Q206.07 8.46 206.42 7.60L206.42 7.60L206.42 7.60Q206.77 6.75 207.10 6.10L207.10 6.10L207.10 6.10Q207.44 5.46 207.70 5.18L207.70 5.18L207.70 5.18Q207.84 5.19 208.07 5.29L208.07 5.29L208.07 5.29Q208.31 5.38 208.54 5.50L208.54 5.50L208.54 5.50Q208.78 5.63 208.98 5.78L208.98 5.78L208.98 5.78Q209.17 5.92 209.23 6.05L209.23 6.05L209.23 6.05Q208.82 6.41 208.43 7.15L208.43 7.15L208.43 7.15Q208.03 7.88 207.66 8.82L207.66 8.82L207.66 8.82Q207.28 9.76 206.96 10.80L206.96 10.80L206.96 10.80Q206.64 11.84 206.40 12.82L206.40 12.82L206.40 12.82Q206.16 13.80 206.03 14.64L206.03 14.64L206.03 14.64Q205.90 15.48 205.90 16.00L205.90 16.00L205.90 16.00Q205.90 16.24 205.94 16.30L205.94 16.30L205.94 16.30Q205.63 16.28 205.49 16.19L205.49 16.19L205.49 16.19Q205.35 16.10 205.28 16.00L205.28 16.00L205.28 16.00Q205.20 15.89 205.13 15.79L205.13 15.79L205.13 15.79Q205.07 15.68 204.95 15.62L204.95 15.62L204.95 15.62Q204.85 15.58 204.78 15.43L204.78 15.43L204.78 15.43Q204.71 15.27 204.66 15.09L204.66 15.09L204.66 15.09Q204.61 14.90 204.58 14.70L204.58 14.70L204.58 14.70Q204.55 14.50 204.55 14.38ZM221.33 16.21L221.33 16.21L221.33 16.21Q221.30 16.23 221.27 16.23L221.27 16.23L221.27 16.23Q221.24 16.23 221.16 16.23L221.16 16.23L221.16 16.23Q220.96 16.23 220.70 16.16L220.70 16.16L220.70 16.16Q220.44 16.10 220.20 16.01L220.20 16.01L220.20 16.01Q219.95 15.92 219.78 15.81L219.78 15.81L219.78 15.81Q219.60 15.69 219.56 15.61L219.56 15.61L219.56 15.61Q219.55 15.41 219.55 15.20L219.55 15.20L219.55 15.20Q219.55 14.99 219.55 14.80L219.55 14.80L219.55 14.80Q219.55 13.23 219.78 11.52L219.78 11.52L219.78 11.52Q220.01 9.81 220.54 7.83L220.54 7.83L220.54 7.83Q220.60 7.63 220.66 7.33L220.66 7.33L220.66 7.33Q220.72 7.03 220.79 6.68L220.79 6.68L220.79 6.68Q220.46 6.94 220.00 7.53L220.00 7.53L220.00 7.53Q219.53 8.11 219.02 8.90L219.02 8.90L219.02 8.90Q218.51 9.69 218.00 10.63L218.00 10.63L218.00 10.63Q217.49 11.58 217.07 12.55L217.07 12.55L217.07 12.55Q216.65 13.52 216.35 14.48L216.35 14.48L216.35 14.48Q216.05 15.43 215.98 16.24L215.98 16.24L215.98 16.24Q215.31 16.04 215.05 15.85L215.05 15.85L215.05 15.85Q214.79 15.65 214.79 15.37L214.79 15.37L214.79 15.37Q214.79 15.12 214.94 14.66L214.94 14.66L214.94 14.66Q215.10 14.20 215.38 13.57L215.38 13.57L215.38 13.57Q215.66 12.94 216.06 12.16L216.06 12.16L216.06 12.16Q216.47 11.38 216.96 10.49L216.96 10.49L216.96 10.49Q217.52 9.46 218.06 8.57L218.06 8.57L218.06 8.57Q218.60 7.67 219.11 6.94L219.11 6.94L219.11 6.94Q219.63 6.22 220.13 5.68L220.13 5.68L220.13 5.68Q220.63 5.15 221.12 4.87L221.12 4.87L221.12 4.87Q221.31 4.87 221.64 4.97L221.64 4.97L221.64 4.97Q221.97 5.07 222.28 5.21L222.28 5.21L222.28 5.21Q222.60 5.35 222.84 5.49L222.84 5.49L222.84 5.49Q223.09 5.64 223.12 5.74L223.12 5.74L223.12 5.74Q222.92 6.13 222.66 6.92L222.66 6.92L222.66 6.92Q222.39 7.70 222.12 8.69L222.12 8.69L222.12 8.69Q221.84 9.69 221.60 10.80L221.60 10.80L221.60 10.80Q221.35 11.91 221.21 12.94L221.21 12.94L221.21 12.94Q221.54 12.17 221.96 11.33L221.96 11.33L221.96 11.33Q222.39 10.50 222.87 9.68L222.87 9.68L222.87 9.68Q223.34 8.86 223.84 8.09L223.84 8.09L223.84 8.09Q224.34 7.32 224.81 6.69L224.81 6.69L224.81 6.69Q225.29 6.05 225.70 5.57L225.70 5.57L225.70 5.57Q226.11 5.10 226.44 4.87L226.44 4.87L226.44 4.87Q226.63 4.87 226.96 4.97L226.96 4.97L226.96 4.97Q227.29 5.07 227.60 5.21L227.60 5.21L227.60 5.21Q227.92 5.35 228.16 5.49L228.16 5.49L228.16 5.49Q228.41 5.64 228.44 5.74L228.44 5.74L228.44 5.74Q227.99 6.54 227.65 7.69L227.65 7.69L227.65 7.69Q227.32 8.83 227.09 10.09L227.09 10.09L227.09 10.09Q226.86 11.35 226.74 12.59L226.74 12.59L226.74 12.59Q226.62 13.83 226.62 14.81L226.62 14.81L226.62 14.81Q226.62 15.13 226.62 15.48L226.62 15.48L226.62 15.48Q226.62 15.83 226.65 16.21L226.65 16.21L226.65 16.21Q226.45 16.21 226.18 16.16L226.18 16.16L226.18 16.16Q225.90 16.11 225.64 16.03L225.64 16.03L225.64 16.03Q225.39 15.95 225.18 15.84L225.18 15.84L225.18 15.84Q224.97 15.74 224.88 15.61L224.88 15.61L224.88 15.61Q224.87 15.41 224.87 15.20L224.87 15.20L224.87 15.20Q224.87 14.99 224.87 14.80L224.87 14.80L224.87 14.80Q224.87 13.23 225.10 11.52L225.10 11.52L225.10 11.52Q225.33 9.81 225.86 7.83L225.86 7.83L225.86 7.83Q225.92 7.63 225.99 7.29L225.99 7.29L225.99 7.29Q226.06 6.96 226.13 6.59L226.13 6.59L226.13 6.59Q225.74 6.79 225.24 7.34L225.24 7.34L225.24 7.34Q224.74 7.90 224.23 8.69L224.23 8.69L224.23 8.69Q223.72 9.48 223.22 10.44L223.22 10.44L223.22 10.44Q222.73 11.41 222.33 12.41L222.33 12.41L222.33 12.41Q221.93 13.41 221.66 14.40L221.66 14.40L221.66 14.40Q221.38 15.39 221.33 16.21ZM245.27 7.63L245.27 7.63L245.27 7.63Q245.27 8.40 244.88 9.10L244.88 9.10L244.88 9.10Q244.50 9.80 243.84 10.32L243.84 10.32L243.84 10.32Q243.19 10.85 242.32 11.16L242.32 11.16L242.32 11.16Q241.44 11.47 240.46 11.47L240.46 11.47L240.46 11.47Q240.11 11.47 239.91 11.38L239.91 11.38L239.91 11.38Q239.71 11.28 239.46 11.02L239.46 11.02L239.46 11.02Q238.76 12.54 238.31 13.82L238.31 13.82L238.31 13.82Q237.87 15.11 237.62 16.31L237.62 16.31L237.62 16.31Q237.09 16.18 236.75 15.87L236.75 15.87L236.75 15.87Q236.42 15.55 236.14 15.08L236.14 15.08L236.14 15.08Q236.28 14.81 236.47 14.38L236.47 14.38L236.47 14.38Q236.67 13.94 236.95 13.31L236.95 13.31L236.95 13.31Q237.23 12.67 237.60 11.78L237.60 11.78L237.60 11.78Q237.97 10.89 238.48 9.70L238.48 9.70L238.48 9.70Q238.70 9.16 238.87 8.75L238.87 8.75L238.87 8.75Q239.04 8.34 239.16 7.99L239.16 7.99L239.16 7.99Q239.29 7.63 239.39 7.28L239.39 7.28L239.39 7.28Q239.50 6.93 239.61 6.51L239.61 6.51L239.61 6.51Q238.95 6.72 238.40 7L238.40 7L238.40 7Q237.85 7.28 237.48 7.59L237.48 7.59L237.48 7.59Q237.36 7.50 237.22 7.34L237.22 7.34L237.22 7.34Q237.09 7.17 236.98 6.96L236.98 6.96L236.98 6.96Q236.87 6.76 236.78 6.55L236.78 6.55L236.78 6.55Q236.70 6.34 236.68 6.17L236.68 6.17L236.68 6.17Q237.09 5.89 237.69 5.66L237.69 5.66L237.69 5.66Q238.29 5.42 238.98 5.24L238.98 5.24L238.98 5.24Q239.67 5.07 240.40 4.97L240.40 4.97L240.40 4.97Q241.14 4.87 241.81 4.87L241.81 4.87L241.81 4.87Q242.61 4.87 243.25 5.07L243.25 5.07L243.25 5.07Q243.89 5.28 244.34 5.64L244.34 5.64L244.34 5.64Q244.79 6.01 245.03 6.51L245.03 6.51L245.03 6.51Q245.27 7.01 245.27 7.63ZM242.77 5.95L242.77 5.95L242.77 5.95Q242.24 5.95 241.68 6.03L241.68 6.03L241.85 6.29L241.85 6.29Q241.71 6.47 241.50 6.83L241.50 6.83L241.50 6.83Q241.29 7.20 241.04 7.71L241.04 7.71L241.04 7.71Q240.79 8.22 240.48 8.85L240.48 8.85L240.48 8.85Q240.18 9.48 239.85 10.18L239.85 10.18L239.85 10.18Q240.94 10.18 241.84 9.97L241.84 9.97L241.84 9.97Q242.73 9.77 243.37 9.41L243.37 9.41L243.37 9.41Q244.01 9.06 244.36 8.58L244.36 8.58L244.36 8.58Q244.72 8.11 244.72 7.56L244.72 7.56L244.72 7.56Q244.72 6.83 244.23 6.39L244.23 6.39L244.23 6.39Q243.74 5.95 242.77 5.95ZM256.93 14.38L256.93 14.38L256.93 14.38Q257.28 14.98 257.28 15.54L257.28 15.54L257.28 15.54Q257.28 15.67 257.26 15.77L257.26 15.77L257.26 15.77Q257.24 15.88 257.21 15.99L257.21 15.99L257.21 15.99Q256.97 15.96 256.71 15.95L256.71 15.95L256.71 15.95Q256.45 15.93 256.17 15.93L256.17 15.93L256.17 15.93Q255.84 15.93 255.49 15.95L255.49 15.95L255.49 15.95Q255.15 15.97 254.73 16.02L254.73 16.02L254.73 16.02Q254.31 16.06 253.79 16.13L253.79 16.13L253.79 16.13Q253.27 16.20 252.59 16.31L252.59 16.31L252.59 16.31Q252.27 16.20 251.94 15.87L251.94 15.87L251.94 15.87Q251.62 15.54 251.34 15.08L251.34 15.08L251.34 15.08Q251.48 14.77 251.69 14.31L251.69 14.31L251.69 14.31Q251.90 13.86 252.18 13.21L252.18 13.21L252.18 13.21Q252.46 12.56 252.80 11.68L252.80 11.68L252.80 11.68Q253.15 10.81 253.54 9.66L253.54 9.66L253.54 9.66Q253.79 8.90 253.97 8.33L253.97 8.33L253.97 8.33Q254.16 7.76 254.30 7.22L254.30 7.22L254.30 7.22Q254.45 6.68 254.59 6.09L254.59 6.09L254.59 6.09Q254.73 5.50 254.90 4.73L254.90 4.73L254.90 4.73Q255.46 4.84 255.87 5.14L255.87 5.14L255.87 5.14Q256.28 5.45 256.66 6.01L256.66 6.01L256.66 6.01Q256.55 6.19 256.37 6.59L256.37 6.59L256.37 6.59Q256.19 7 255.94 7.58L255.94 7.58L255.94 7.58Q255.70 8.16 255.40 8.90L255.40 8.90L255.40 8.90Q255.11 9.63 254.79 10.47L254.79 10.47L254.79 10.47Q254.48 11.30 254.18 12.03L254.18 12.03L254.18 12.03Q253.89 12.75 253.66 13.34L253.66 13.34L253.66 13.34Q253.43 13.93 253.29 14.35L253.29 14.35L253.29 14.35Q253.15 14.77 253.15 14.98L253.15 14.98L253.15 14.98Q253.37 14.97 253.55 14.95L253.55 14.95L253.55 14.95Q253.74 14.94 253.93 14.90L253.93 14.90L253.93 14.90Q254.13 14.87 254.36 14.82L254.36 14.82L254.36 14.82Q254.59 14.77 254.91 14.69L254.91 14.69L254.91 14.69Q255.19 14.62 255.43 14.57L255.43 14.57L255.43 14.57Q255.67 14.52 255.90 14.48L255.90 14.48L255.90 14.48Q256.13 14.45 256.38 14.43L256.38 14.43L256.38 14.43Q256.62 14.41 256.93 14.38ZM271.35 9.21L271.35 9.21L271.35 9.21Q271.81 9.21 272.07 9.46L272.07 9.46L272.07 9.46Q272.33 9.72 272.33 10.16L272.33 10.16L272.33 10.16Q272.33 10.28 272.31 10.39L272.31 10.39L272.31 10.39Q272.29 10.51 272.26 10.60L272.26 10.60L272.26 10.60Q272.08 10.57 271.85 10.55L271.85 10.55L271.85 10.55Q271.63 10.53 271.32 10.53L271.32 10.53L271.32 10.53Q270.72 10.53 270.10 10.63L270.10 10.63L270.10 10.63Q269.49 10.74 268.93 10.81L268.93 10.81L268.93 10.81Q268.60 11.55 268.34 12.24L268.34 12.24L268.34 12.24Q268.07 12.94 267.88 13.51L267.88 13.51L267.88 13.51Q267.69 14.08 267.59 14.50L267.59 14.50L267.59 14.50Q267.48 14.92 267.47 15.13L267.47 15.13L267.47 15.13Q268.60 14.90 269.76 14.73L269.76 14.73L269.76 14.73Q270.91 14.56 272.19 14.48L272.19 14.48L272.19 14.48Q272.34 14.71 272.45 14.99L272.45 14.99L272.45 14.99Q272.55 15.27 272.55 15.60L272.55 15.60L272.55 15.60Q272.55 15.68 272.55 15.78L272.55 15.78L272.55 15.78Q272.55 15.88 272.52 15.97L272.52 15.97L272.52 15.97Q272.13 15.96 271.70 15.95L271.70 15.95L271.70 15.95Q271.26 15.95 270.56 15.95L270.56 15.95L270.56 15.95Q270.10 15.95 269.69 15.97L269.69 15.97L269.69 15.97Q269.28 15.99 268.86 16.03L268.86 16.03L268.86 16.03Q268.44 16.07 267.97 16.14L267.97 16.14L267.97 16.14Q267.50 16.21 266.91 16.31L266.91 16.31L266.91 16.31Q266.27 16.06 265.66 15.08L265.66 15.08L265.66 15.08Q265.90 14.57 266.33 13.54L266.33 13.54L266.33 13.54Q266.76 12.52 267.41 10.79L267.41 10.79L267.41 10.79Q266.78 10.60 266.59 10.09L266.59 10.09L266.59 10.09Q266.66 10.02 266.99 9.92L266.99 9.92L266.99 9.92Q267.33 9.81 267.82 9.70L267.82 9.70L267.82 9.70Q268.03 9.16 268.18 8.75L268.18 8.75L268.18 8.75Q268.32 8.34 268.44 7.99L268.44 7.99L268.44 7.99Q268.55 7.63 268.64 7.29L268.64 7.29L268.64 7.29Q268.73 6.94 268.81 6.54L268.81 6.54L268.81 6.54Q268.32 6.51 268.04 6.27L268.04 6.27L268.04 6.27Q267.76 6.02 267.76 5.63L267.76 5.63L267.76 5.63Q267.76 5.52 267.80 5.36L267.80 5.36L267.80 5.36Q267.83 5.21 267.88 5.10L267.88 5.10L267.88 5.10Q268.16 5.14 268.41 5.15L268.41 5.15L268.41 5.15Q268.67 5.17 269.09 5.17L269.09 5.17L269.09 5.17Q269.98 5.17 270.75 5.12L270.75 5.12L270.75 5.12Q271.52 5.07 272.14 5.01L272.14 5.01L272.14 5.01Q272.76 4.96 273.21 4.91L273.21 4.91L273.21 4.91Q273.66 4.86 273.90 4.86L273.90 4.86L273.90 4.86Q274.22 4.86 274.47 5.19L274.47 5.19L274.47 5.19Q274.72 5.53 274.85 6.15L274.85 6.15L274.85 6.15Q274.41 6.10 274.14 6.09L274.14 6.09L274.14 6.09Q273.87 6.08 273.66 6.08L273.66 6.08L273.66 6.08Q272.89 6.08 272.25 6.15L272.25 6.15L272.25 6.15Q271.61 6.23 271.03 6.31L271.03 6.31L271.03 6.31Q270.94 6.44 270.84 6.64L270.84 6.64L270.84 6.64Q270.73 6.83 270.56 7.18L270.56 7.18L270.56 7.18Q270.40 7.53 270.15 8.06L270.15 8.06L270.15 8.06Q269.91 8.60 269.56 9.39L269.56 9.39L269.56 9.39Q270.09 9.31 270.56 9.26L270.56 9.26L270.56 9.26Q271.03 9.21 271.35 9.21Z"></path></g></svg>